<svg xmlns="http://www.w3.org/2000/svg" viewBox="0 0 64 64" role="img" aria-label="Discord">
  <rect width="64" height="64" rx="16" fill="#5865f2"/>
  <path fill="#fff" d="M22.6 18.9c6.3-2.4 12.5-2.4 18.8 0 5.2 7.8 6.3 15.4 5.6 22.8-5.4 4-10.6 5.3-15.8 5.2l-1.9-2.4c3.1-.9 5.4-2.2 7.3-3.7-5.1 2.4-10.1 2.4-15.2 0 1.9 1.5 4.2 2.8 7.3 3.7l-1.9 2.4c-5.2.1-10.4-1.2-15.8-5.2-.7-7.4.4-15 5.6-22.8zm3.5 17.8c1.9 0 3.4-1.7 3.4-3.8s-1.5-3.8-3.4-3.8-3.4 1.7-3.4 3.8 1.5 3.8 3.4 3.8zm11.8 0c1.9 0 3.4-1.7 3.4-3.8s-1.5-3.8-3.4-3.8-3.4 1.7-3.4 3.8 1.5 3.8 3.4 3.8z"/>
</svg>
